<svg width="100%" viewBox="-6 -6 68 30" xmlns="http://www.w3.org/2000/svg"><rect x="-6" y="-6" width="68" height="30" rx="2" fill="#ffffff"/><g id="svgGroup" stroke-linecap="round" fill-rule="evenodd" font-size="9pt" stroke="#000" stroke-width="0.25mm" fill="none" style="stroke:#000;stroke-width:0.25mm;fill:none"><path d="M 2 18 L 16 18 A 2 2 0 0 0 18 16 L 18 2 A 2 2 0 0 0 16 0 L 2 0 A 2 2 0 0 0 0 2 L 0 16 A 2 2 0 0 0 2 18 Z M 21 18 L 35 18 A 2 2 0 0 0 37 16 L 37 2 A 2 2 0 0 0 35 0 L 21 0 A 2 2 0 0 0 19 2 L 19 16 A 2 2 0 0 0 21 18 Z M 40 18 L 54 18 A 2 2 0 0 0 56 16 L 56 2 A 2 2 0 0 0 54 0 L 40 0 A 2 2 0 0 0 38 2 L 38 16 A 2 2 0 0 0 40 18 Z" vector-effect="non-scaling-stroke"/></g></svg>