<svg width="390" viewBox="-6 -6 65 34.5" xmlns="http://www.w3.org/2000/svg"><rect x="-6" y="-6" width="65" height="34.5" rx="2" fill="#ffffff"/><g id="svgGroup" stroke-linecap="round" fill-rule="evenodd" font-size="9pt" stroke="#000" stroke-width="0.45mm" fill="none" style="stroke:#000;stroke-width:0.45mm;fill:none"><path d="M 0 15 L 15 15 L 15 0 L 0 0 L 0 15 Z M 19 15 L 34 15 L 34 0 L 19 0 L 19 15 Z M 38 15 L 53 15 L 53 0 L 38 0 L 38 15 Z M 7.5 19.5 m -3 0 a 3 3 0 0 1 6 0 a 3 3 0 0 1 -6 0 z M 26.5 19.5 m -3 0 a 3 3 0 0 1 6 0 a 3 3 0 0 1 -6 0 z M 45.5 19.5 m -3 0 a 3 3 0 0 1 6 0 a 3 3 0 0 1 -6 0 z" vector-effect="non-scaling-stroke"/></g></svg>