<svg width="100%" viewBox="-6 -6 65 46" xmlns="http://www.w3.org/2000/svg"><rect x="-6" y="-6" width="65" height="46" rx="2" fill="#ffffff"/><g id="svgGroup" stroke-linecap="round" fill-rule="evenodd" font-size="9pt" stroke="#000" stroke-width="0.25mm" fill="none" style="stroke:#000;stroke-width:0.25mm;fill:none"><path d="M 0 34 L 15 34 L 15 19 L 0 19 L 0 34 Z M 0 15 L 15 15 L 15 0 L 0 0 L 0 15 Z M 19 34 L 34 34 L 34 19 L 19 19 L 19 34 Z M 19 15 L 34 15 L 34 0 L 19 0 L 19 15 Z M 38 34 L 53 34 L 53 19 L 38 19 L 38 34 Z M 38 15 L 53 15 L 53 0 L 38 0 L 38 15 Z" vector-effect="non-scaling-stroke"/></g></svg>