<svg width="882" viewBox="-6 -6 147 46" xmlns="http://www.w3.org/2000/svg"><rect x="-6" y="-6" width="147" height="46" rx="2" fill="#ffffff"/><g id="svgGroup" stroke-linecap="round" fill-rule="evenodd" font-size="9pt" stroke="#000" stroke-width="0.45mm" fill="none" style="stroke:#000;stroke-width:0.45mm;fill:none"><path d="M 0 34 L 34 34 L 34 0 L 0 0 L 0 34 Z M 101 34 L 135 34 L 135 0 L 101 0 L 101 34 Z M 26.5 7.5 m -4 0 a 4 4 0 0 1 8 0 a 4 4 0 0 1 -8 0 z M 108.5 7.5 m -4 0 a 4 4 0 0 1 8 0 a 4 4 0 0 1 -8 0 z" vector-effect="non-scaling-stroke"/></g></svg>