<svg width="408" viewBox="-6 -6 68 59" xmlns="http://www.w3.org/2000/svg"><rect x="-6" y="-6" width="68" height="59" rx="2" fill="#ffffff"/><g id="svgGroup" stroke-linecap="round" fill-rule="evenodd" font-size="9pt" stroke="#000" stroke-width="0.45mm" fill="none" style="stroke:#000;stroke-width:0.45mm;fill:none"><path d="M 0 29 L 18 29 L 18 47 L 0 47 L 0 29 Z M 0 10 L 18 10 L 18 28 L 0 28 L 0 10 Z M 19 22 L 37 22 L 37 40 L 19 40 L 19 22 Z M 19 3 L 37 3 L 37 21 L 19 21 L 19 3 Z M 38 19 L 56 19 L 56 37 L 38 37 L 38 19 Z M 38 0 L 56 0 L 56 18 L 38 18 L 38 0 Z" vector-effect="non-scaling-stroke"/></g></svg>