<svg width="100%" viewBox="-6 -6 88 50" xmlns="http://www.w3.org/2000/svg"><rect x="-6" y="-6" width="88" height="50" rx="2" fill="#ffffff"/><g id="svgGroup" stroke-linecap="round" fill-rule="evenodd" font-size="9pt" stroke="#000" stroke-width="0.25mm" fill="none" style="stroke:#000;stroke-width:0.25mm;fill:none"><path d="M 3 38 L 54 38 A 3 3 0 0 0 57 35 L 57 16 A 3 3 0 0 0 60 19 L 73 19 A 3 3 0 0 0 76 16 L 76 3 A 3 3 0 0 0 73 0 L 60 0 A 3 3 0 0 0 57 3 A 3 3 0 0 0 54 0 L 3 0 A 3 3 0 0 0 0 3 L 0 35 A 3 3 0 0 0 3 38 Z" vector-effect="non-scaling-stroke"/></g></svg>