<svg width="636" viewBox="-6 -6 106 49" xmlns="http://www.w3.org/2000/svg"><rect x="-6" y="-6" width="106" height="49" rx="2" fill="#ffffff"/><g id="svgGroup" stroke-linecap="round" fill-rule="evenodd" font-size="9pt" stroke="#000" stroke-width="0.45mm" fill="none" style="stroke:#000;stroke-width:0.45mm;fill:none"><path d="M 0 19 L 18 19 L 18 37 L 0 37 L 0 19 Z M 0 0 L 18 0 L 18 18 L 0 18 L 0 0 Z M 84 19 L 94 19 L 94 37 L 84 37 L 84 19 Z M 84 0 L 94 0 L 94 18 L 84 18 L 84 0 Z M 65 19 L 75 19 L 75 37 L 65 37 L 65 19 Z M 65 0 L 75 0 L 75 18 L 65 18 L 65 0 Z" vector-effect="non-scaling-stroke"/></g></svg>