<svg width="100%" viewBox="-6 -6 77.278 65.922" xmlns="http://www.w3.org/2000/svg"><rect x="-6" y="-6" width="77.278" height="65.922" rx="2" fill="#ffffff"/><g id="svgGroup" stroke-linecap="round" fill-rule="evenodd" font-size="9pt" stroke="#000" stroke-width="0.25mm" fill="none" style="stroke:#000;stroke-width:0.25mm;fill:none"><path d="M 6.498 37.007 L 23.413 30.851 L 29.569 47.765 L 12.655 53.922 L 6.498 37.007 Z M 0 19.153 L 16.914 12.997 L 23.071 29.911 L 6.156 36.068 L 0 19.153 Z M 24.353 30.509 L 41.267 24.353 L 47.423 41.267 L 30.509 47.423 L 24.353 30.509 Z M 17.854 12.655 L 34.769 6.498 L 40.925 23.413 L 24.011 29.569 L 17.854 12.655 Z M 42.207 24.011 L 59.121 17.854 L 65.278 34.769 L 48.363 40.925 L 42.207 24.011 Z M 35.708 6.156 L 52.623 0 L 58.779 16.914 L 41.865 23.071 L 35.708 6.156 Z" vector-effect="non-scaling-stroke"/></g></svg>