<svg width="863" viewBox="-6 -6 143.844 108.353" xmlns="http://www.w3.org/2000/svg"><rect x="-6" y="-6" width="143.844" height="108.353" rx="2" fill="#ffffff"/><g id="svgGroup" stroke-linecap="round" fill-rule="evenodd" font-size="9pt" stroke="#000" stroke-width="0.45mm" fill="none" style="stroke:#000;stroke-width:0.45mm;fill:none"><path d="M 3.312 56.637 L 21.243 55.068 L 22.812 73 L 4.881 74.569 L 3.312 56.637 Z M 1.656 37.709 L 19.587 36.141 L 21.156 54.072 L 3.225 55.641 L 1.656 37.709 Z M 0 18.782 L 17.932 17.213 L 19.5 35.144 L 1.569 36.713 L 0 18.782 Z M 121.779 71.365 L 131.844 86.288 L 116.921 96.353 L 106.856 81.43 L 121.779 71.365 Z M 97.087 61.828 L 112.98 70.279 L 104.529 86.172 L 88.636 77.721 L 97.087 61.828 Z M 60.808 44 L 78.808 44 L 78.808 62 L 60.808 62 L 60.808 44 Z M 60.808 6 L 78.808 6 L 78.808 24 L 60.808 24 L 60.808 6 Z M 22.808 43 L 40.808 43 L 40.808 61 L 22.808 61 L 22.808 43 Z M 22.808 24 L 40.808 24 L 40.808 42 L 22.808 42 L 22.808 24 Z M 22.808 5 L 40.808 5 L 40.808 23 L 22.808 23 L 22.808 5 Z M 41.808 38 L 59.808 38 L 59.808 56 L 41.808 56 L 41.808 38 Z M 41.808 19 L 59.808 19 L 59.808 37 L 41.808 37 L 41.808 19 Z M 41.808 0 L 59.808 0 L 59.808 18 L 41.808 18 L 41.808 0 Z M 60.808 25 L 78.808 25 L 78.808 43 L 60.808 43 L 60.808 25 Z M 79.808 46 L 97.808 46 L 97.808 64 L 79.808 64 L 79.808 46 Z M 79.808 27 L 97.808 27 L 97.808 45 L 79.808 45 L 79.808 27 Z M 79.808 8 L 97.808 8 L 97.808 26 L 79.808 26 L 79.808 8 Z M 72.808 65 L 90.808 65 L 90.808 83 L 72.808 83 L 72.808 65 Z" vector-effect="non-scaling-stroke"/></g></svg>