<svg width="588" viewBox="-6 -6 98 68" xmlns="http://www.w3.org/2000/svg"><rect x="-6" y="-6" width="98" height="68" rx="2" fill="#ffffff"/><g id="svgGroup" stroke-linecap="round" fill-rule="evenodd" font-size="9pt" stroke="#000" stroke-width="0.45mm" fill="none" style="stroke:#000;stroke-width:0.45mm;fill:none"><path d="M 49 19 L 67 19 L 67 37 L 49 37 L 49 19 Z M 49 0 L 67 0 L 67 18 L 49 18 L 49 0 Z M 68 19 L 86 19 L 86 37 L 68 37 L 68 19 Z M 68 0 L 86 0 L 86 18 L 68 18 L 68 0 Z M 49 38 L 67 38 L 67 56 L 49 56 L 49 38 Z M 19 19 L 37 19 L 37 37 L 19 37 L 19 19 Z M 19 0 L 37 0 L 37 18 L 19 18 L 19 0 Z M 0 19 L 18 19 L 18 37 L 0 37 L 0 19 Z M 0 0 L 18 0 L 18 18 L 0 18 L 0 0 Z M 19 38 L 37 38 L 37 56 L 19 56 L 19 38 Z" vector-effect="non-scaling-stroke"/></g></svg>