<svg width="408" viewBox="-6 -6 68 68" xmlns="http://www.w3.org/2000/svg"><rect x="-6" y="-6" width="68" height="68" rx="2" fill="#ffffff"/><g id="svgGroup" stroke-linecap="round" fill-rule="evenodd" font-size="9pt" stroke="#000" stroke-width="0.45mm" fill="none" style="stroke:#000;stroke-width:0.45mm;fill:none"><path d="M 0 38 L 18 38 L 18 56 L 0 56 L 0 38 Z M 0 19 L 18 19 L 18 37 L 0 37 L 0 19 Z M 19 38 L 37 38 L 37 56 L 19 56 L 19 38 Z M 19 19 L 37 19 L 37 37 L 19 37 L 19 19 Z M 19 0 L 37 0 L 37 18 L 19 18 L 19 0 Z M 38 38 L 56 38 L 56 56 L 38 56 L 38 38 Z M 38 19 L 56 19 L 56 37 L 38 37 L 38 19 Z M 38 0 L 56 0 L 56 18 L 38 18 L 38 0 Z" vector-effect="non-scaling-stroke"/></g></svg>