<svg width="100%" viewBox="-6 -6 65 62" xmlns="http://www.w3.org/2000/svg"><rect x="-6" y="-6" width="65" height="62" rx="2" fill="#ffffff"/><g id="svgGroup" stroke-linecap="round" fill-rule="evenodd" font-size="9pt" stroke="#000" stroke-width="0.25mm" fill="none" style="stroke:#000;stroke-width:0.25mm;fill:none"><path d="M 0 34 L 17 34 L 17 50 L 0 50 L 0 34 Z M 0 17 L 17 17 L 17 33 L 0 33 L 0 17 Z M 0 0 L 17 0 L 17 16 L 0 16 L 0 0 Z M 18 34 L 35 34 L 35 50 L 18 50 L 18 34 Z M 18 17 L 35 17 L 35 33 L 18 33 L 18 17 Z M 18 0 L 35 0 L 35 16 L 18 16 L 18 0 Z M 36 34 L 53 34 L 53 50 L 36 50 L 36 34 Z M 36 17 L 53 17 L 53 33 L 36 33 L 36 17 Z M 36 0 L 53 0 L 53 16 L 36 16 L 36 0 Z" vector-effect="non-scaling-stroke"/></g></svg>